<?xml version="1.0" encoding="UTF-8"?>
<svg xmlns="http://www.w3.org/2000/svg" width="1024" height="1024" viewBox="0 0 1024 1024">
<defs><linearGradient id="lit" x1="0" y1="0" x2="0" y2="1"><stop offset="0" stop-color="#ffffff" stop-opacity="0.28"/><stop offset="0.55" stop-color="#ffffff" stop-opacity="0"/><stop offset="1" stop-color="#000000" stop-opacity="0.07"/></linearGradient></defs><g transform="translate(100.00 100.00)"><path d="M529.07 0c103.23 0 154.85 0 194.28 20.09a184.33 184.33 0 0 1 80.55 80.55c20.09 39.43 20.09 91.05 20.09 194.28L824.00 529.07c0 103.23 0 154.85 -20.09 194.28a184.33 184.33 0 0 1 -80.55 80.55c-39.43 20.09 -91.05 20.09 -194.28 20.09L294.93 824.00c-103.23 0 -154.85 0 -194.28 -20.09a184.33 184.33 0 0 1 -80.55 -80.55c-20.09 -39.43 -20.09 -91.05 -20.09 -194.28L0 294.93c0 -103.23 0 -154.85 20.09 -194.28a184.33 184.33 0 0 1 80.55 -80.55c39.43 -20.09 91.05 -20.09 194.28 -20.09Z" fill="#bfe5cf"/><path d="M529.07 0c103.23 0 154.85 0 194.28 20.09a184.33 184.33 0 0 1 80.55 80.55c20.09 39.43 20.09 91.05 20.09 194.28L824.00 529.07c0 103.23 0 154.85 -20.09 194.28a184.33 184.33 0 0 1 -80.55 80.55c-39.43 20.09 -91.05 20.09 -194.28 20.09L294.93 824.00c-103.23 0 -154.85 0 -194.28 -20.09a184.33 184.33 0 0 1 -80.55 -80.55c-20.09 -39.43 -20.09 -91.05 -20.09 -194.28L0 294.93c0 -103.23 0 -154.85 20.09 -194.28a184.33 184.33 0 0 1 80.55 -80.55c39.43 -20.09 91.05 -20.09 194.28 -20.09Z" fill="url(#lit)"/><g transform="translate(115.4 123.6) scale(9.2700)"><rect x="4" y="4" width="24" height="24" rx="5" fill="#15171b"/><rect x="4" y="36" width="24" height="24" rx="5" fill="#15171b"/><rect x="36" y="36" width="24" height="24" rx="5" fill="#15171b"/><rect x="36.6" y="3.4000000000000004" width="24" height="24" rx="5" fill="#f3c8d0" transform="rotate(12 48.6 15.4)"/></g></g>
</svg>
